<?xml version="1.0" encoding="UTF-8"?>
<svg id="b" data-name="Слой 2" xmlns="http://www.w3.org/2000/svg" width="127.18" height="127.18" viewBox="0 0 127.18 127.18">
  <defs>
    <style>
      .h {
        fill: none;
        stroke: #fc0fc0;
        stroke-miterlimit: 10;
        stroke-width: 4px;
      }

      .i {
        fill: #fc0fc0;
        stroke-width: 0px;
      }
    </style>
  </defs>
  <g id="c" data-name="Слой 4">
    <g>
      <g id="d" data-name="&amp;lt;Радиальное повторение&amp;gt;">
        <rect class="h" x="48.54" y="89.3" width="30.1" height="30.1" rx="1.09" ry="1.09" transform="translate(182.34 133.17) rotate(135)"/>
      </g>
      <g id="e" data-name="&amp;lt;Радиальное повторение&amp;gt;">
        <rect class="h" x="7.78" y="48.54" width="30.1" height="30.1" rx="1.09" ry="1.09" transform="translate(-5.99 124.7) rotate(-135)"/>
      </g>
      <g id="f" data-name="&amp;lt;Радиальное повторение&amp;gt;">
        <rect class="h" x="48.54" y="7.78" width="30.1" height="30.1" rx="1.09" ry="1.09" transform="translate(2.48 51.65) rotate(-45)"/>
      </g>
      <g id="g" data-name="&amp;lt;Радиальное повторение&amp;gt;">
        <rect class="h" x="89.3" y="48.54" width="30.1" height="30.1" rx="1.09" ry="1.09" transform="translate(75.53 -55.16) rotate(45)"/>
      </g>
    </g>
    <path class="i" d="M24.9,105.47c2.67-2.67,5.34-5.34,8.01-8.01l19.24-19.24c7.76-7.76,15.52-15.52,23.27-23.27,6.71-6.71,13.42-13.42,20.12-20.12,3.25-3.25,6.65-6.41,9.79-9.79.04-.05.09-.09.14-.14,2.05-2.05-1.13-5.23-3.18-3.18-2.67,2.67-5.34,5.34-8.01,8.01l-19.24,19.24c-7.76,7.76-15.52,15.52-23.27,23.27-6.71,6.71-13.42,13.42-20.12,20.12-3.25,3.25-6.65,6.41-9.79,9.79-.04.05-.09.09-.14.14-2.05,2.05,1.13,5.23,3.18,3.18h0Z"/>
    <path class="i" d="M105.47,102.28c-2.67-2.67-5.34-5.34-8.01-8.01-6.41-6.41-12.82-12.82-19.24-19.24-7.76-7.76-15.52-15.52-23.27-23.27l-20.12-20.12c-3.25-3.25-6.41-6.65-9.79-9.79-.05-.04-.09-.09-.14-.14-2.05-2.05-5.23,1.13-3.18,3.18l8.01,8.01c6.41,6.41,12.82,12.82,19.24,19.24,7.76,7.76,15.52,15.52,23.27,23.27,6.71,6.71,13.42,13.42,20.12,20.12,3.25,3.25,6.41,6.65,9.79,9.79.05.04.09.09.14.14,2.05,2.05,5.23-1.13,3.18-3.18h0Z"/>
  </g>
</svg>